<svg xmlns="http://www.w3.org/2000/svg" xmlns:xlink="http://www.w3.org/1999/xlink" width="32" height="34"><defs><clipPath id="b"><path d="M0 0h32v34H0z"/></clipPath><filter id="a" filterUnits="objectBoundingBox" x="0%" y="0%" width="100%" height="100%"><feColorMatrix in="SourceGraphic" values="0 0 0 0 1 0 0 0 0 1 0 0 0 0 1 0 0 0 1 0"/></filter><mask id="d"><g filter="url(#a)"><path style="fill:#000;fill-opacity:.976471;stroke:none" d="M0 0h32v34H0z"/></g></mask><g id="c" clip-path="url(#b)"><path style="stroke:none;fill-rule:evenodd;fill:#010100;fill-opacity:1" d="M16.695-.035h.14c.528.074.981.305 1.36.695 1.114 1.719 1.578 3.598 1.395 5.633a9.61 9.61 0 0 1-.66 2.121c.367.047.742.047 1.113 0 .46-.129.926-.23 1.395-.312 0-1.102.289-2.122.87-3.063 1.72-3.027 4.333-4.453 7.844-4.273a1.974 1.974 0 0 1 1.29 1.144c.273 2.094-.169 4.016-1.325 5.774a5.094 5.094 0 0 1-.66.73c1.328.047 2.168.707 2.508 1.98v1.32c-.36 6.7-.695 13.395-1.012 20.095-.16 1.117-.777 1.836-1.848 2.156H2.825c-1.083-.348-1.7-1.09-1.848-2.223C.66 24.996.324 18.25-.035 11.508v-1.113c.469-1.477 1.492-2.137 3.066-1.98C1.59 7.097.79 5.464.63 3.511.23.668 1.429-.387 4.219.348c1.703.336 3.11 1.156 4.218 2.468a10.2 10.2 0 0 1 1.95 3.547c.078.457.125.922.14 1.39.34.11.676.227 1.012.349-.164-3.555 1.297-6.211 4.39-7.961.266-.067.52-.125.766-.176zm0 0"/></g></defs><use xlink:href="#c" mask="url(#d)"/><path style="stroke:none;fill-rule:evenodd;fill:#cdfc06;fill-opacity:1" d="M16.488 8.45c.453-1.071.707-2.18.766-3.34a1.666 1.666 0 0 0-.07-.555 7.501 7.501 0 0 0-1.043-3.059c.375-.371.757-.371 1.148 0a8.226 8.226 0 0 1 1.152 3.824 8.455 8.455 0 0 1-.804 3.059c-.38.066-.766.09-1.149.07zm0 0"/><path style="stroke:none;fill-rule:evenodd;fill:#adfd00;fill-opacity:1" d="M2.195 1.355c2.094-.027 3.848.715 5.266 2.227.7.836 1.254 1.762 1.672 2.781.117.668.222 1.34.312 2.016a47.19 47.19 0 0 1-4.46.035c-2.364-1.55-3.419-3.738-3.173-6.57.114-.172.243-.336.383-.489zm13.946.141a7.501 7.501 0 0 1 1.043 3.059c-.239-.203-.516-.258-.836-.176-.38.379-.356.726.07 1.043.367.11.645.004.836-.313a9.748 9.748 0 0 1-.766 3.34h-3.695c-.336-3.043.781-5.36 3.348-6.953zm0 0"/><path style="stroke:none;fill-rule:evenodd;fill:#ccfb06;fill-opacity:1" d="M26.738 8.45c1.407-1.231 2.184-2.786 2.332-4.66.02-.36.055-.72.106-1.08a4.323 4.323 0 0 0-.207-.73 1.456 1.456 0 0 1 1.113.106c.11.11.191.238.246.383.125 2.453-.77 4.433-2.683 5.945-.301.035-.606.047-.907.035zm0 0"/><path style="stroke:none;fill-rule:evenodd;fill:#aefd00;fill-opacity:1" d="M28.969 1.98c.09.239.16.48.207.73-.051.36-.086.72-.106 1.08-.148 1.874-.925 3.429-2.332 4.66-1.375.023-2.746 0-4.113-.071a4.632 4.632 0 0 1 .66-2.574 10.698 10.698 0 0 1 2.059-2.535 6.971 6.971 0 0 1 3.625-1.29zm0 0"/><path style="stroke:none;fill-rule:evenodd;fill:#0c0a01;fill-opacity:1" d="M4.566 3.094c.594.023.836.324.73.902-.433.41-.804.363-1.112-.137-.059-.347.07-.605.382-.765zm0 0"/><path style="stroke:none;fill-rule:evenodd;fill:#090600;fill-opacity:1" d="M17.184 4.555c.054.18.078.367.07.554-.192.317-.469.422-.836.313-.426-.317-.45-.664-.07-1.043.32-.082.597-.027.836.176zm0 0"/><path style="stroke:none;fill-rule:evenodd;fill:#0c0901;fill-opacity:1" d="M27.71 4.902c.642-.07.907.207.806.832-.403.477-.774.454-1.118-.066a.447.447 0 0 1 0-.348c.09-.148.196-.289.313-.418zm0 0"/><path style="stroke:none;fill-rule:evenodd;fill:#f4f4f4;fill-opacity:1" d="M2.059 9.7c9.039-.012 18.078 0 27.117.034.148.168.258.371.312.59a65.652 65.652 0 0 1-.066 3.617l-.84 17.383c.012.54-.14 1.028-.453 1.461-8.363.008-16.73 0-25.098-.035-.66-.313-.949-.832-.87-1.566-.317-6.618-.634-13.235-.942-19.852-.184-.797.093-1.344.84-1.633zm0 0"/><path style="stroke:none;fill-rule:evenodd;fill:#cdd5d9;fill-opacity:1" d="M2.059 9.7c9.27-.083 18.543-.095 27.816-.036.75.324 1.027.895.836 1.703-.305 6.863-.645 13.723-1.012 20.582-.308.668-.832.95-1.57.836.312-.433.465-.922.453-1.46l.84-17.384c.055-1.203.078-2.41.066-3.617a1.413 1.413 0 0 0-.312-.59A5229.12 5229.12 0 0 0 2.059 9.7zm0 0"/><path style="stroke:none;fill-rule:evenodd;fill:#040303;fill-opacity:1" d="M11.957 14.36c1.93-.012 2.848.94 2.754 2.847-.434 1.43-1.399 2.043-2.895 1.844-1.285-.465-1.879-1.38-1.777-2.746.281-1.008.918-1.657 1.918-1.946zm7.11 0c1.507-.102 2.449.57 2.824 2.015-.008 1.957-.996 2.848-2.961 2.676-1.348-.496-1.918-1.461-1.711-2.887.289-.945.902-1.547 1.847-1.805zm0 0"/><path style="stroke:none;fill-rule:evenodd;fill:#fc5500;fill-opacity:1" d="M12.164 15.54c1.07.01 1.524.546 1.36 1.6-.395.778-.985.973-1.778.59-.52-.484-.625-1.05-.312-1.703.207-.226.453-.386.73-.488zm7.113 0c1.203.062 1.633.663 1.29 1.808-.653.71-1.329.734-2.024.07-.375-.875-.129-1.5.734-1.879zm0 0"/><path style="stroke:none;fill-rule:evenodd;fill:#030303;fill-opacity:1" d="M7.844 19.71c1.453-.116 2.414.513 2.894 1.88.063 1.988-.902 2.926-2.894 2.816-1.364-.48-1.957-1.445-1.778-2.886.278-.915.872-1.516 1.778-1.81zm0 0"/><path style="stroke:none;fill-rule:evenodd;fill:#040303;fill-opacity:1" d="M23.32 19.71c1.367-.148 2.309.411 2.825 1.669.277 1.555-.34 2.562-1.848 3.027-1.43.137-2.348-.476-2.754-1.843-.16-1.426.43-2.375 1.777-2.852zm-8.226.626c2.781-.156 4.582 1.094 5.402 3.758a5.214 5.214 0 0 1 0 3.129c-.262.699-.762 1.129-1.5 1.285a9.363 9.363 0 0 1-1.148.105 67.532 67.532 0 0 0-4.707-.035c-1.383-.394-2.036-1.32-1.95-2.781.043-2.246 1.02-3.938 2.926-5.078.328-.149.653-.278.977-.383zm0 0"/><path style="stroke:none;fill-rule:evenodd;fill:#fc5500;fill-opacity:1" d="M8.121 20.895c.719-.079 1.195.222 1.43.902.11.719-.18 1.195-.871 1.426-1.067.07-1.543-.43-1.43-1.496.148-.434.438-.715.871-.832zm15.41 0c1.016-.04 1.516.445 1.496 1.46-.312.797-.882 1.067-1.707.797-.605-.398-.78-.941-.523-1.632.172-.301.418-.508.734-.625zm0 0"/><path style="stroke:none;fill-rule:evenodd;fill:#fd5500;fill-opacity:1" d="M15.305 21.52c1.96-.141 3.273.718 3.937 2.574.254.742.348 1.508.278 2.293a1.167 1.167 0 0 1-.66.937 5.524 5.524 0 0 1-1.012.106 25.244 25.244 0 0 0-3.766 0 5.524 5.524 0 0 1-1.012-.106 1.167 1.167 0 0 1-.66-.937c-.156-1.719.414-3.145 1.707-4.278.375-.234.774-.43 1.188-.59zm0 0"/></svg>